<mxfile host="app.diagrams.net" agent="Mozilla/5.0 (Windows NT 10.0; Win64; x64) AppleWebKit/537.36 (KHTML, like Gecko) Chrome/133.0.0.0 Safari/537.36 Edg/133.0.0.0" version="26.0.16" pages="2">
  <diagram name="Trang-1" id="3V1mbge0oOwgzor044g2">
    <mxGraphModel dx="5231" dy="2466" grid="1" gridSize="10" guides="1" tooltips="1" connect="1" arrows="1" fold="1" page="1" pageScale="1" pageWidth="827" pageHeight="1169" math="0" shadow="0">
      <root>
        <mxCell id="0" />
        <mxCell id="1" parent="0" />
        <mxCell id="uCpHYPL4uAlhx9UP-cmn-113" value="" style="rounded=0;whiteSpace=wrap;html=1;dashed=1;" vertex="1" parent="1">
          <mxGeometry x="770" y="1172.25" width="350" height="297.75" as="geometry" />
        </mxCell>
        <mxCell id="uCpHYPL4uAlhx9UP-cmn-18" value="" style="rounded=0;whiteSpace=wrap;html=1;container=0;" vertex="1" parent="1">
          <mxGeometry x="100" y="907.741935483871" width="509.9999999999999" height="352.258064516129" as="geometry" />
        </mxCell>
        <mxCell id="uCpHYPL4uAlhx9UP-cmn-2" value="Web Application" style="rounded=0;whiteSpace=wrap;html=1;" vertex="1" parent="1">
          <mxGeometry x="330" y="360" width="220" height="70" as="geometry" />
        </mxCell>
        <mxCell id="uCpHYPL4uAlhx9UP-cmn-4" value="&lt;font style=&quot;font-size: 18px;&quot;&gt;Baby Three PreOrderHub&lt;/font&gt;" style="rounded=0;whiteSpace=wrap;html=1;" vertex="1" parent="1">
          <mxGeometry x="500" y="170" width="530" height="60" as="geometry" />
        </mxCell>
        <mxCell id="uCpHYPL4uAlhx9UP-cmn-21" value="" style="group" vertex="1" connectable="0" parent="1">
          <mxGeometry x="140" y="470" width="410" height="310" as="geometry" />
        </mxCell>
        <mxCell id="uCpHYPL4uAlhx9UP-cmn-16" value="" style="rounded=0;whiteSpace=wrap;html=1;" vertex="1" parent="uCpHYPL4uAlhx9UP-cmn-21">
          <mxGeometry y="30" width="410" height="280" as="geometry" />
        </mxCell>
        <mxCell id="uCpHYPL4uAlhx9UP-cmn-17" value="Controller Layer" style="rounded=0;whiteSpace=wrap;html=1;" vertex="1" parent="uCpHYPL4uAlhx9UP-cmn-21">
          <mxGeometry width="150" height="30" as="geometry" />
        </mxCell>
        <mxCell id="uCpHYPL4uAlhx9UP-cmn-25" value="Request" style="rounded=0;whiteSpace=wrap;html=1;" vertex="1" parent="uCpHYPL4uAlhx9UP-cmn-21">
          <mxGeometry x="40" y="90" width="120" height="60" as="geometry" />
        </mxCell>
        <mxCell id="uCpHYPL4uAlhx9UP-cmn-33" value="Response" style="rounded=0;whiteSpace=wrap;html=1;" vertex="1" parent="uCpHYPL4uAlhx9UP-cmn-21">
          <mxGeometry x="40" y="180" width="120" height="60" as="geometry" />
        </mxCell>
        <mxCell id="uCpHYPL4uAlhx9UP-cmn-34" value="API" style="rounded=0;whiteSpace=wrap;html=1;" vertex="1" parent="uCpHYPL4uAlhx9UP-cmn-21">
          <mxGeometry x="230" y="180" width="120" height="60" as="geometry" />
        </mxCell>
        <mxCell id="uCpHYPL4uAlhx9UP-cmn-50" value="" style="rounded=0;whiteSpace=wrap;html=1;" vertex="1" parent="uCpHYPL4uAlhx9UP-cmn-21">
          <mxGeometry x="40" y="70" width="50" height="20" as="geometry" />
        </mxCell>
        <mxCell id="uCpHYPL4uAlhx9UP-cmn-49" value="" style="rounded=0;whiteSpace=wrap;html=1;" vertex="1" parent="uCpHYPL4uAlhx9UP-cmn-21">
          <mxGeometry x="40" y="160" width="50" height="20" as="geometry" />
        </mxCell>
        <mxCell id="uCpHYPL4uAlhx9UP-cmn-48" value="" style="rounded=0;whiteSpace=wrap;html=1;" vertex="1" parent="uCpHYPL4uAlhx9UP-cmn-21">
          <mxGeometry x="230" y="160" width="50" height="20" as="geometry" />
        </mxCell>
        <mxCell id="uCpHYPL4uAlhx9UP-cmn-56" value="&amp;lt;&amp;lt;import&amp;gt;&amp;gt;" style="html=1;verticalAlign=bottom;endArrow=open;dashed=1;endSize=8;curved=0;rounded=0;entryX=1;entryY=0.5;entryDx=0;entryDy=0;exitX=-0.002;exitY=0.598;exitDx=0;exitDy=0;exitPerimeter=0;" edge="1" parent="uCpHYPL4uAlhx9UP-cmn-21" source="uCpHYPL4uAlhx9UP-cmn-34" target="uCpHYPL4uAlhx9UP-cmn-33">
          <mxGeometry relative="1" as="geometry">
            <mxPoint x="470" y="260" as="sourcePoint" />
            <mxPoint x="473" y="80" as="targetPoint" />
            <mxPoint as="offset" />
          </mxGeometry>
        </mxCell>
        <mxCell id="uCpHYPL4uAlhx9UP-cmn-24" value="" style="group" vertex="1" connectable="0" parent="1">
          <mxGeometry x="160" y="1330" width="410" height="310" as="geometry" />
        </mxCell>
        <mxCell id="uCpHYPL4uAlhx9UP-cmn-22" value="" style="rounded=0;whiteSpace=wrap;html=1;" vertex="1" parent="uCpHYPL4uAlhx9UP-cmn-24">
          <mxGeometry y="30" width="410" height="280" as="geometry" />
        </mxCell>
        <mxCell id="uCpHYPL4uAlhx9UP-cmn-23" value="Repository Layer" style="rounded=0;whiteSpace=wrap;html=1;" vertex="1" parent="uCpHYPL4uAlhx9UP-cmn-24">
          <mxGeometry width="150" height="30" as="geometry" />
        </mxCell>
        <mxCell id="uCpHYPL4uAlhx9UP-cmn-76" value="" style="group" vertex="1" connectable="0" parent="uCpHYPL4uAlhx9UP-cmn-24">
          <mxGeometry x="120" y="115" width="170" height="80" as="geometry" />
        </mxCell>
        <mxCell id="uCpHYPL4uAlhx9UP-cmn-77" value="Repository" style="rounded=0;whiteSpace=wrap;html=1;" vertex="1" parent="uCpHYPL4uAlhx9UP-cmn-76">
          <mxGeometry y="20" width="170" height="60" as="geometry" />
        </mxCell>
        <mxCell id="uCpHYPL4uAlhx9UP-cmn-78" value="" style="rounded=0;whiteSpace=wrap;html=1;" vertex="1" parent="uCpHYPL4uAlhx9UP-cmn-76">
          <mxGeometry width="50" height="20" as="geometry" />
        </mxCell>
        <mxCell id="uCpHYPL4uAlhx9UP-cmn-32" value="Request" style="rounded=0;whiteSpace=wrap;html=1;" vertex="1" parent="1">
          <mxGeometry x="180" y="560" width="120" height="60" as="geometry" />
        </mxCell>
        <mxCell id="uCpHYPL4uAlhx9UP-cmn-35" value="" style="group" vertex="1" connectable="0" parent="1">
          <mxGeometry x="1200" y="899" width="310" height="310" as="geometry" />
        </mxCell>
        <mxCell id="uCpHYPL4uAlhx9UP-cmn-10" value="" style="whiteSpace=wrap;html=1;aspect=fixed;" vertex="1" parent="uCpHYPL4uAlhx9UP-cmn-35">
          <mxGeometry width="310" height="310" as="geometry" />
        </mxCell>
        <mxCell id="uCpHYPL4uAlhx9UP-cmn-3" value="VNPAY" style="rounded=0;whiteSpace=wrap;html=1;" vertex="1" parent="uCpHYPL4uAlhx9UP-cmn-35">
          <mxGeometry x="46" y="53" width="120" height="50" as="geometry" />
        </mxCell>
        <mxCell id="uCpHYPL4uAlhx9UP-cmn-7" value="Firebase" style="rounded=0;whiteSpace=wrap;html=1;" vertex="1" parent="uCpHYPL4uAlhx9UP-cmn-35">
          <mxGeometry x="46" y="143" width="120" height="50" as="geometry" />
        </mxCell>
        <mxCell id="uCpHYPL4uAlhx9UP-cmn-8" value="MomoPay" style="rounded=0;whiteSpace=wrap;html=1;" vertex="1" parent="uCpHYPL4uAlhx9UP-cmn-35">
          <mxGeometry x="46" y="227" width="120" height="50" as="geometry" />
        </mxCell>
        <mxCell id="uCpHYPL4uAlhx9UP-cmn-12" value="" style="rounded=0;whiteSpace=wrap;html=1;" vertex="1" parent="uCpHYPL4uAlhx9UP-cmn-35">
          <mxGeometry x="46" y="33" width="50" height="20" as="geometry" />
        </mxCell>
        <mxCell id="uCpHYPL4uAlhx9UP-cmn-13" value="" style="rounded=0;whiteSpace=wrap;html=1;" vertex="1" parent="uCpHYPL4uAlhx9UP-cmn-35">
          <mxGeometry x="46" y="123" width="50" height="20" as="geometry" />
        </mxCell>
        <mxCell id="uCpHYPL4uAlhx9UP-cmn-15" value="" style="rounded=0;whiteSpace=wrap;html=1;" vertex="1" parent="uCpHYPL4uAlhx9UP-cmn-35">
          <mxGeometry x="46" y="207" width="50" height="20" as="geometry" />
        </mxCell>
        <mxCell id="uCpHYPL4uAlhx9UP-cmn-38" value="InventoryService" style="rounded=0;whiteSpace=wrap;html=1;" vertex="1" parent="1">
          <mxGeometry x="880" y="1400" width="130" height="48.88" as="geometry" />
        </mxCell>
        <mxCell id="uCpHYPL4uAlhx9UP-cmn-39" value="NotificationService" style="rounded=0;whiteSpace=wrap;html=1;" vertex="1" parent="1">
          <mxGeometry x="940" y="1320" width="110" height="50" as="geometry" />
        </mxCell>
        <mxCell id="uCpHYPL4uAlhx9UP-cmn-40" value="OrderService" style="rounded=0;whiteSpace=wrap;html=1;" vertex="1" parent="1">
          <mxGeometry x="827" y="1320" width="83" height="50" as="geometry" />
        </mxCell>
        <mxCell id="uCpHYPL4uAlhx9UP-cmn-41" value="ProductService" style="rounded=0;whiteSpace=wrap;html=1;" vertex="1" parent="1">
          <mxGeometry x="940" y="1223.62" width="90" height="56.12" as="geometry" />
        </mxCell>
        <mxCell id="uCpHYPL4uAlhx9UP-cmn-42" value="UserService" style="rounded=0;whiteSpace=wrap;html=1;" vertex="1" parent="1">
          <mxGeometry x="827" y="1222.2399999999998" width="80" height="58.88" as="geometry" />
        </mxCell>
        <mxCell id="uCpHYPL4uAlhx9UP-cmn-54" value="&amp;lt;&amp;lt;Http Response&amp;gt;&amp;gt;" style="html=1;verticalAlign=bottom;endArrow=open;dashed=1;endSize=8;curved=0;rounded=0;exitX=0.902;exitY=-0.021;exitDx=0;exitDy=0;exitPerimeter=0;entryX=0.771;entryY=1.043;entryDx=0;entryDy=0;entryPerimeter=0;" edge="1" parent="1" source="uCpHYPL4uAlhx9UP-cmn-34" target="uCpHYPL4uAlhx9UP-cmn-2">
          <mxGeometry relative="1" as="geometry">
            <mxPoint x="610" y="450" as="sourcePoint" />
            <mxPoint x="530" y="450" as="targetPoint" />
            <mxPoint as="offset" />
          </mxGeometry>
        </mxCell>
        <mxCell id="uCpHYPL4uAlhx9UP-cmn-55" value="&amp;lt;&amp;lt;Http Request&amp;gt;&amp;gt;" style="html=1;verticalAlign=bottom;endArrow=open;dashed=1;endSize=8;curved=0;rounded=0;entryX=0.594;entryY=-0.029;entryDx=0;entryDy=0;entryPerimeter=0;exitX=0.278;exitY=1.012;exitDx=0;exitDy=0;exitPerimeter=0;" edge="1" parent="1" source="uCpHYPL4uAlhx9UP-cmn-2" target="uCpHYPL4uAlhx9UP-cmn-48">
          <mxGeometry relative="1" as="geometry">
            <mxPoint x="650" y="640" as="sourcePoint" />
            <mxPoint x="653" y="350" as="targetPoint" />
            <mxPoint as="offset" />
          </mxGeometry>
        </mxCell>
        <mxCell id="uCpHYPL4uAlhx9UP-cmn-57" value="&amp;lt;&amp;lt;import&amp;gt;&amp;gt;" style="html=1;verticalAlign=bottom;endArrow=open;dashed=1;endSize=8;curved=0;rounded=0;entryX=0.998;entryY=0.336;entryDx=0;entryDy=0;entryPerimeter=0;" edge="1" parent="1" target="uCpHYPL4uAlhx9UP-cmn-32">
          <mxGeometry relative="1" as="geometry">
            <mxPoint x="380" y="630" as="sourcePoint" />
            <mxPoint x="763" y="585" as="targetPoint" />
            <mxPoint as="offset" />
            <Array as="points">
              <mxPoint x="380" y="580" />
            </Array>
          </mxGeometry>
        </mxCell>
        <mxCell id="uCpHYPL4uAlhx9UP-cmn-19" value="Service Layer" style="rounded=0;whiteSpace=wrap;html=1;container=0;" vertex="1" parent="1">
          <mxGeometry x="100" y="870" width="186.58536585365852" height="37.74193548387097" as="geometry" />
        </mxCell>
        <mxCell id="uCpHYPL4uAlhx9UP-cmn-79" value="&amp;lt;&amp;lt;import&amp;gt;&amp;gt;" style="html=1;verticalAlign=bottom;endArrow=open;dashed=1;endSize=8;curved=0;rounded=0;entryX=0.977;entryY=0.65;entryDx=0;entryDy=0;entryPerimeter=0;exitX=0;exitY=0.5;exitDx=0;exitDy=0;" edge="1" parent="1" source="uCpHYPL4uAlhx9UP-cmn-62" target="uCpHYPL4uAlhx9UP-cmn-58">
          <mxGeometry relative="1" as="geometry">
            <mxPoint x="370" y="990" as="sourcePoint" />
            <mxPoint x="260" y="990" as="targetPoint" />
            <mxPoint as="offset" />
            <Array as="points">
              <mxPoint x="340" y="990" />
              <mxPoint x="290" y="990" />
            </Array>
          </mxGeometry>
        </mxCell>
        <mxCell id="uCpHYPL4uAlhx9UP-cmn-65" value="Exception" style="rounded=0;whiteSpace=wrap;html=1;container=0;" vertex="1" parent="1">
          <mxGeometry x="140.00106382978723" y="1065" width="112.87276595744679" height="45" as="geometry" />
        </mxCell>
        <mxCell id="uCpHYPL4uAlhx9UP-cmn-66" value="" style="rounded=0;whiteSpace=wrap;html=1;container=0;" vertex="1" parent="1">
          <mxGeometry x="140.00106382978723" y="1050" width="47.030319148936165" height="15" as="geometry" />
        </mxCell>
        <mxCell id="uCpHYPL4uAlhx9UP-cmn-62" value="Service Implement" style="rounded=0;whiteSpace=wrap;html=1;container=0;" vertex="1" parent="1">
          <mxGeometry x="350" y="960" width="120" height="60" as="geometry" />
        </mxCell>
        <mxCell id="uCpHYPL4uAlhx9UP-cmn-47" value="" style="rounded=0;whiteSpace=wrap;html=1;container=0;" vertex="1" parent="1">
          <mxGeometry x="350" y="940" width="50" height="20" as="geometry" />
        </mxCell>
        <mxCell id="uCpHYPL4uAlhx9UP-cmn-83" value="&amp;lt;&amp;lt;call&amp;gt;&amp;gt;" style="html=1;verticalAlign=bottom;endArrow=open;dashed=1;endSize=8;curved=0;rounded=0;entryX=1;entryY=0.5;entryDx=0;entryDy=0;exitX=0;exitY=0.75;exitDx=0;exitDy=0;" edge="1" parent="1" source="uCpHYPL4uAlhx9UP-cmn-62" target="uCpHYPL4uAlhx9UP-cmn-65">
          <mxGeometry relative="1" as="geometry">
            <mxPoint x="320" y="1060" as="sourcePoint" />
            <mxPoint x="240" y="1060" as="targetPoint" />
          </mxGeometry>
        </mxCell>
        <mxCell id="uCpHYPL4uAlhx9UP-cmn-58" value="Service Interface" style="rounded=0;whiteSpace=wrap;html=1;container=0;" vertex="1" parent="1">
          <mxGeometry x="136.43999999999997" y="950" width="120" height="60" as="geometry" />
        </mxCell>
        <mxCell id="uCpHYPL4uAlhx9UP-cmn-59" value="" style="rounded=0;whiteSpace=wrap;html=1;container=0;" vertex="1" parent="1">
          <mxGeometry x="136.43999999999997" y="930" width="50" height="20" as="geometry" />
        </mxCell>
        <mxCell id="uCpHYPL4uAlhx9UP-cmn-71" value="Config" style="rounded=0;whiteSpace=wrap;html=1;container=0;" vertex="1" parent="1">
          <mxGeometry x="140" y="1170" width="120" height="60" as="geometry" />
        </mxCell>
        <mxCell id="uCpHYPL4uAlhx9UP-cmn-72" value="" style="rounded=0;whiteSpace=wrap;html=1;container=0;" vertex="1" parent="1">
          <mxGeometry x="140" y="1150" width="50" height="20" as="geometry" />
        </mxCell>
        <mxCell id="uCpHYPL4uAlhx9UP-cmn-74" value="Model" style="rounded=0;whiteSpace=wrap;html=1;container=0;" vertex="1" parent="1">
          <mxGeometry x="310" y="1149" width="120" height="60" as="geometry" />
        </mxCell>
        <mxCell id="uCpHYPL4uAlhx9UP-cmn-75" value="" style="rounded=0;whiteSpace=wrap;html=1;container=0;" vertex="1" parent="1">
          <mxGeometry x="310" y="1129" width="50" height="20" as="geometry" />
        </mxCell>
        <mxCell id="uCpHYPL4uAlhx9UP-cmn-68" value="Utils" style="rounded=0;whiteSpace=wrap;html=1;container=0;" vertex="1" parent="1">
          <mxGeometry x="470" y="1172.25" width="100" height="36.75" as="geometry" />
        </mxCell>
        <mxCell id="uCpHYPL4uAlhx9UP-cmn-69" value="" style="rounded=0;whiteSpace=wrap;html=1;container=0;" vertex="1" parent="1">
          <mxGeometry x="470" y="1160" width="41.66666666666667" height="12.25" as="geometry" />
        </mxCell>
        <mxCell id="uCpHYPL4uAlhx9UP-cmn-85" value="&amp;lt;&amp;lt;use&amp;gt;&amp;gt;" style="endArrow=block;endFill=1;html=1;edgeStyle=orthogonalEdgeStyle;align=left;verticalAlign=top;rounded=0;exitX=0.165;exitY=1.027;exitDx=0;exitDy=0;exitPerimeter=0;entryX=0.5;entryY=0;entryDx=0;entryDy=0;" edge="1" parent="1" source="uCpHYPL4uAlhx9UP-cmn-62" target="uCpHYPL4uAlhx9UP-cmn-74">
          <mxGeometry x="-0.7121" y="-40" relative="1" as="geometry">
            <mxPoint x="630" y="970" as="sourcePoint" />
            <mxPoint x="790" y="970" as="targetPoint" />
            <mxPoint x="1" as="offset" />
          </mxGeometry>
        </mxCell>
        <mxCell id="uCpHYPL4uAlhx9UP-cmn-87" value="Return value" style="html=1;verticalAlign=bottom;endArrow=open;dashed=1;endSize=8;curved=0;rounded=0;exitX=0.75;exitY=0;exitDx=0;exitDy=0;entryX=0.75;entryY=1;entryDx=0;entryDy=0;" edge="1" parent="1" source="uCpHYPL4uAlhx9UP-cmn-74" target="uCpHYPL4uAlhx9UP-cmn-62">
          <mxGeometry relative="1" as="geometry">
            <mxPoint x="584" y="1065" as="sourcePoint" />
            <mxPoint x="490" y="1070" as="targetPoint" />
            <mxPoint as="offset" />
            <Array as="points" />
          </mxGeometry>
        </mxCell>
        <mxCell id="uCpHYPL4uAlhx9UP-cmn-88" value="&amp;lt;&amp;lt;import&amp;gt;&amp;gt;" style="html=1;verticalAlign=bottom;endArrow=open;dashed=1;endSize=8;curved=0;rounded=0;entryX=0.5;entryY=0;entryDx=0;entryDy=0;exitX=0.908;exitY=1.041;exitDx=0;exitDy=0;exitPerimeter=0;" edge="1" parent="1" source="uCpHYPL4uAlhx9UP-cmn-62" target="uCpHYPL4uAlhx9UP-cmn-69">
          <mxGeometry x="0.1373" y="3" relative="1" as="geometry">
            <mxPoint x="370" y="1010" as="sourcePoint" />
            <mxPoint x="276" y="1015" as="targetPoint" />
            <mxPoint as="offset" />
            <Array as="points" />
          </mxGeometry>
        </mxCell>
        <mxCell id="uCpHYPL4uAlhx9UP-cmn-89" value="&amp;lt;&amp;lt;import&amp;gt;&amp;gt;" style="html=1;verticalAlign=bottom;endArrow=open;dashed=1;endSize=8;curved=0;rounded=0;exitX=0.988;exitY=0.853;exitDx=0;exitDy=0;exitPerimeter=0;entryX=0.75;entryY=1;entryDx=0;entryDy=0;" edge="1" parent="1" source="uCpHYPL4uAlhx9UP-cmn-62" target="uCpHYPL4uAlhx9UP-cmn-71">
          <mxGeometry relative="1" as="geometry">
            <mxPoint x="770" y="1065" as="sourcePoint" />
            <mxPoint x="180" y="1280" as="targetPoint" />
            <mxPoint as="offset" />
            <Array as="points">
              <mxPoint x="660" y="1011" />
              <mxPoint x="660" y="1280" />
              <mxPoint x="230" y="1280" />
            </Array>
          </mxGeometry>
        </mxCell>
        <mxCell id="uCpHYPL4uAlhx9UP-cmn-90" value="&amp;lt;&amp;lt;Http Request&amp;gt;&amp;gt;" style="html=1;verticalAlign=bottom;endArrow=open;dashed=1;endSize=8;curved=0;rounded=0;entryX=0;entryY=0.229;entryDx=0;entryDy=0;entryPerimeter=0;exitX=0.988;exitY=0.157;exitDx=0;exitDy=0;exitPerimeter=0;" edge="1" parent="1" source="uCpHYPL4uAlhx9UP-cmn-62" target="uCpHYPL4uAlhx9UP-cmn-10">
          <mxGeometry relative="1" as="geometry">
            <mxPoint x="840" y="1070" as="sourcePoint" />
            <mxPoint x="839" y="1348" as="targetPoint" />
            <mxPoint as="offset" />
          </mxGeometry>
        </mxCell>
        <mxCell id="uCpHYPL4uAlhx9UP-cmn-91" value="&amp;lt;&amp;lt;Http Response&amp;gt;&amp;gt;" style="html=1;verticalAlign=bottom;endArrow=open;dashed=1;endSize=8;curved=0;rounded=0;exitX=-0.012;exitY=0.309;exitDx=0;exitDy=0;exitPerimeter=0;entryX=1;entryY=0.58;entryDx=0;entryDy=0;entryPerimeter=0;" edge="1" parent="1" source="uCpHYPL4uAlhx9UP-cmn-10" target="uCpHYPL4uAlhx9UP-cmn-62">
          <mxGeometry relative="1" as="geometry">
            <mxPoint x="840" y="1376" as="sourcePoint" />
            <mxPoint x="872" y="1080" as="targetPoint" />
            <mxPoint as="offset" />
          </mxGeometry>
        </mxCell>
        <mxCell id="uCpHYPL4uAlhx9UP-cmn-92" value="&amp;lt;&amp;lt;Call&amp;gt;&amp;gt;" style="html=1;verticalAlign=bottom;endArrow=open;dashed=1;endSize=8;curved=0;rounded=0;exitX=0.25;exitY=1;exitDx=0;exitDy=0;entryX=0.342;entryY=0.027;entryDx=0;entryDy=0;entryPerimeter=0;" edge="1" parent="1" source="uCpHYPL4uAlhx9UP-cmn-74" target="uCpHYPL4uAlhx9UP-cmn-77">
          <mxGeometry relative="1" as="geometry">
            <mxPoint x="730" y="1440" as="sourcePoint" />
            <mxPoint x="650" y="1440" as="targetPoint" />
          </mxGeometry>
        </mxCell>
        <mxCell id="uCpHYPL4uAlhx9UP-cmn-93" value="&amp;lt;&amp;lt;Return Value&amp;gt;&amp;gt;" style="html=1;verticalAlign=bottom;endArrow=open;dashed=1;endSize=8;curved=0;rounded=0;entryX=0.75;entryY=1;entryDx=0;entryDy=0;exitX=0.711;exitY=0.039;exitDx=0;exitDy=0;exitPerimeter=0;" edge="1" parent="1" source="uCpHYPL4uAlhx9UP-cmn-77" target="uCpHYPL4uAlhx9UP-cmn-74">
          <mxGeometry x="-0.5561" y="1" relative="1" as="geometry">
            <mxPoint x="740" y="1520" as="sourcePoint" />
            <mxPoint x="600" y="1520" as="targetPoint" />
            <mxPoint as="offset" />
          </mxGeometry>
        </mxCell>
        <mxCell id="uCpHYPL4uAlhx9UP-cmn-95" value="&amp;lt;&amp;lt;Query&amp;gt;&amp;gt;" style="html=1;verticalAlign=bottom;endArrow=open;dashed=1;endSize=8;curved=0;rounded=0;entryX=0.145;entryY=0;entryDx=0;entryDy=4.35;exitX=0.099;exitY=1.016;exitDx=0;exitDy=0;exitPerimeter=0;entryPerimeter=0;" edge="1" parent="1" source="uCpHYPL4uAlhx9UP-cmn-77" target="uCpHYPL4uAlhx9UP-cmn-96">
          <mxGeometry x="-0.5562" y="1" relative="1" as="geometry">
            <mxPoint x="781" y="1808" as="sourcePoint" />
            <mxPoint x="780" y="1550" as="targetPoint" />
            <mxPoint as="offset" />
          </mxGeometry>
        </mxCell>
        <mxCell id="uCpHYPL4uAlhx9UP-cmn-96" value="Database" style="shape=cylinder3;whiteSpace=wrap;html=1;boundedLbl=1;backgroundOutline=1;size=15;" vertex="1" parent="1">
          <mxGeometry x="315.0000000000002" y="1754" width="60" height="80" as="geometry" />
        </mxCell>
        <mxCell id="uCpHYPL4uAlhx9UP-cmn-98" value="&amp;lt;&amp;lt;Return Data&amp;gt;&amp;gt;" style="html=1;verticalAlign=bottom;endArrow=open;dashed=1;endSize=8;curved=0;rounded=0;entryX=0.75;entryY=1;entryDx=0;entryDy=0;exitX=0.855;exitY=0;exitDx=0;exitDy=4.35;exitPerimeter=0;" edge="1" parent="1" source="uCpHYPL4uAlhx9UP-cmn-96" target="uCpHYPL4uAlhx9UP-cmn-77">
          <mxGeometry x="-0.5561" y="1" relative="1" as="geometry">
            <mxPoint x="671" y="1738" as="sourcePoint" />
            <mxPoint x="670" y="1480" as="targetPoint" />
            <mxPoint as="offset" />
          </mxGeometry>
        </mxCell>
        <mxCell id="uCpHYPL4uAlhx9UP-cmn-104" value="" style="group" vertex="1" connectable="0" parent="1">
          <mxGeometry x="820" y="480" width="410" height="300" as="geometry" />
        </mxCell>
        <mxCell id="uCpHYPL4uAlhx9UP-cmn-46" value="Controller Components" style="rounded=0;whiteSpace=wrap;html=1;" vertex="1" parent="uCpHYPL4uAlhx9UP-cmn-104">
          <mxGeometry width="140" height="25" as="geometry" />
        </mxCell>
        <mxCell id="uCpHYPL4uAlhx9UP-cmn-103" value="" style="rounded=0;whiteSpace=wrap;html=1;dashed=1;" vertex="1" parent="uCpHYPL4uAlhx9UP-cmn-104">
          <mxGeometry y="25" width="410" height="275" as="geometry" />
        </mxCell>
        <mxCell id="uCpHYPL4uAlhx9UP-cmn-44" value="UserController" style="rounded=0;whiteSpace=wrap;html=1;" vertex="1" parent="uCpHYPL4uAlhx9UP-cmn-104">
          <mxGeometry x="80" y="70" width="120" height="50" as="geometry" />
        </mxCell>
        <mxCell id="uCpHYPL4uAlhx9UP-cmn-109" value="ProductController" style="rounded=0;whiteSpace=wrap;html=1;" vertex="1" parent="uCpHYPL4uAlhx9UP-cmn-104">
          <mxGeometry x="240" y="70" width="120" height="50" as="geometry" />
        </mxCell>
        <mxCell id="uCpHYPL4uAlhx9UP-cmn-108" value="OrderController" style="rounded=0;whiteSpace=wrap;html=1;" vertex="1" parent="uCpHYPL4uAlhx9UP-cmn-104">
          <mxGeometry x="80" y="180" width="120" height="50" as="geometry" />
        </mxCell>
        <mxCell id="uCpHYPL4uAlhx9UP-cmn-107" value="NotificationController" style="rounded=0;whiteSpace=wrap;html=1;" vertex="1" parent="uCpHYPL4uAlhx9UP-cmn-104">
          <mxGeometry x="251" y="180" width="120" height="50" as="geometry" />
        </mxCell>
        <mxCell id="uCpHYPL4uAlhx9UP-cmn-127" value="" style="rounded=0;whiteSpace=wrap;html=1;" vertex="1" parent="uCpHYPL4uAlhx9UP-cmn-104">
          <mxGeometry x="80" y="57.75999999999999" width="43" height="12.24" as="geometry" />
        </mxCell>
        <mxCell id="uCpHYPL4uAlhx9UP-cmn-128" value="" style="rounded=0;whiteSpace=wrap;html=1;" vertex="1" parent="uCpHYPL4uAlhx9UP-cmn-104">
          <mxGeometry x="240" y="57.75999999999999" width="43" height="12.24" as="geometry" />
        </mxCell>
        <mxCell id="uCpHYPL4uAlhx9UP-cmn-129" value="" style="rounded=0;whiteSpace=wrap;html=1;" vertex="1" parent="uCpHYPL4uAlhx9UP-cmn-104">
          <mxGeometry x="251" y="167.76" width="43" height="12.24" as="geometry" />
        </mxCell>
        <mxCell id="uCpHYPL4uAlhx9UP-cmn-134" value="" style="rounded=0;whiteSpace=wrap;html=1;" vertex="1" parent="uCpHYPL4uAlhx9UP-cmn-104">
          <mxGeometry x="80" y="167.76" width="43" height="12.24" as="geometry" />
        </mxCell>
        <mxCell id="uCpHYPL4uAlhx9UP-cmn-112" value="&amp;lt;&amp;lt;uses&amp;gt;&amp;gt;" style="endArrow=block;endFill=1;html=1;edgeStyle=orthogonalEdgeStyle;align=left;verticalAlign=top;rounded=0;exitX=1.027;exitY=0.661;exitDx=0;exitDy=0;exitPerimeter=0;entryX=-0.005;entryY=0.529;entryDx=0;entryDy=0;entryPerimeter=0;" edge="1" parent="1" source="uCpHYPL4uAlhx9UP-cmn-34" target="uCpHYPL4uAlhx9UP-cmn-103">
          <mxGeometry x="0.2419" y="21" relative="1" as="geometry">
            <mxPoint x="660" y="600" as="sourcePoint" />
            <mxPoint x="660" y="727" as="targetPoint" />
            <mxPoint as="offset" />
          </mxGeometry>
        </mxCell>
        <mxCell id="uCpHYPL4uAlhx9UP-cmn-115" value="&amp;lt;&amp;lt;Payment&amp;gt;&amp;gt;" style="html=1;verticalAlign=bottom;endArrow=open;dashed=1;endSize=8;curved=0;rounded=0;entryX=0;entryY=0.5;entryDx=0;entryDy=0;exitX=1;exitY=0.5;exitDx=0;exitDy=0;" edge="1" parent="1" source="uCpHYPL4uAlhx9UP-cmn-39" target="uCpHYPL4uAlhx9UP-cmn-8">
          <mxGeometry x="-0.5561" y="1" relative="1" as="geometry">
            <mxPoint x="1270" y="1513" as="sourcePoint" />
            <mxPoint x="1312" y="1280" as="targetPoint" />
            <mxPoint as="offset" />
          </mxGeometry>
        </mxCell>
        <mxCell id="uCpHYPL4uAlhx9UP-cmn-116" value="&amp;lt;&amp;lt;Payment&amp;gt;&amp;gt;" style="html=1;verticalAlign=bottom;endArrow=open;dashed=1;endSize=8;curved=0;rounded=0;exitX=1;exitY=0.75;exitDx=0;exitDy=0;entryX=1;entryY=0.75;entryDx=0;entryDy=0;" edge="1" parent="1" source="uCpHYPL4uAlhx9UP-cmn-39" target="uCpHYPL4uAlhx9UP-cmn-3">
          <mxGeometry x="-0.5561" y="1" relative="1" as="geometry">
            <mxPoint x="1400" y="1543" as="sourcePoint" />
            <mxPoint x="1560" y="940" as="targetPoint" />
            <mxPoint as="offset" />
            <Array as="points">
              <mxPoint x="1560" y="1358" />
              <mxPoint x="1560" y="990" />
            </Array>
          </mxGeometry>
        </mxCell>
        <mxCell id="uCpHYPL4uAlhx9UP-cmn-117" value="&amp;lt;&amp;lt;Http Request&amp;gt;&amp;gt;" style="html=1;verticalAlign=bottom;endArrow=open;dashed=1;endSize=8;curved=0;rounded=0;entryX=0;entryY=0.5;entryDx=0;entryDy=0;exitX=0.75;exitY=0;exitDx=0;exitDy=0;" edge="1" parent="1" source="uCpHYPL4uAlhx9UP-cmn-42" target="uCpHYPL4uAlhx9UP-cmn-7">
          <mxGeometry x="0.0739" y="2" relative="1" as="geometry">
            <mxPoint x="890" y="1106" as="sourcePoint" />
            <mxPoint x="1621" y="1107" as="targetPoint" />
            <mxPoint as="offset" />
            <Array as="points">
              <mxPoint x="887" y="1070" />
            </Array>
          </mxGeometry>
        </mxCell>
        <mxCell id="uCpHYPL4uAlhx9UP-cmn-118" value="" style="rounded=0;whiteSpace=wrap;html=1;" vertex="1" parent="1">
          <mxGeometry x="827" y="1210" width="43" height="12.24" as="geometry" />
        </mxCell>
        <mxCell id="uCpHYPL4uAlhx9UP-cmn-120" value="" style="rounded=0;whiteSpace=wrap;html=1;" vertex="1" parent="1">
          <mxGeometry x="940" y="1211.38" width="43" height="12.24" as="geometry" />
        </mxCell>
        <mxCell id="uCpHYPL4uAlhx9UP-cmn-121" value="" style="rounded=0;whiteSpace=wrap;html=1;" vertex="1" parent="1">
          <mxGeometry x="880" y="1387.76" width="43" height="12.24" as="geometry" />
        </mxCell>
        <mxCell id="uCpHYPL4uAlhx9UP-cmn-122" value="" style="rounded=0;whiteSpace=wrap;html=1;" vertex="1" parent="1">
          <mxGeometry x="940" y="1307.76" width="43" height="12.24" as="geometry" />
        </mxCell>
        <mxCell id="uCpHYPL4uAlhx9UP-cmn-123" value="" style="rounded=0;whiteSpace=wrap;html=1;" vertex="1" parent="1">
          <mxGeometry x="827" y="1307.76" width="43" height="12.24" as="geometry" />
        </mxCell>
        <mxCell id="uCpHYPL4uAlhx9UP-cmn-147" value="Service Components" style="rounded=0;whiteSpace=wrap;html=1;" vertex="1" parent="1">
          <mxGeometry x="770" y="1147.25" width="140" height="25" as="geometry" />
        </mxCell>
        <mxCell id="uCpHYPL4uAlhx9UP-cmn-153" value="" style="group" vertex="1" connectable="0" parent="1">
          <mxGeometry x="740" y="1511.25" width="350" height="322.75" as="geometry" />
        </mxCell>
        <mxCell id="uCpHYPL4uAlhx9UP-cmn-135" value="" style="rounded=0;whiteSpace=wrap;html=1;dashed=1;" vertex="1" parent="uCpHYPL4uAlhx9UP-cmn-153">
          <mxGeometry y="25" width="350" height="297.75" as="geometry" />
        </mxCell>
        <mxCell id="uCpHYPL4uAlhx9UP-cmn-148" value="Repository Components" style="rounded=0;whiteSpace=wrap;html=1;" vertex="1" parent="uCpHYPL4uAlhx9UP-cmn-153">
          <mxGeometry width="140" height="25" as="geometry" />
        </mxCell>
        <mxCell id="uCpHYPL4uAlhx9UP-cmn-149" value="UserRepository" style="rounded=0;whiteSpace=wrap;html=1;" vertex="1" parent="uCpHYPL4uAlhx9UP-cmn-153">
          <mxGeometry x="30" y="68.75" width="100" height="50" as="geometry" />
        </mxCell>
        <mxCell id="uCpHYPL4uAlhx9UP-cmn-150" value="InventoryRepository" style="rounded=0;whiteSpace=wrap;html=1;" vertex="1" parent="uCpHYPL4uAlhx9UP-cmn-153">
          <mxGeometry x="200" y="178.75" width="120" height="50" as="geometry" />
        </mxCell>
        <mxCell id="uCpHYPL4uAlhx9UP-cmn-151" value="OrderRepository" style="rounded=0;whiteSpace=wrap;html=1;" vertex="1" parent="uCpHYPL4uAlhx9UP-cmn-153">
          <mxGeometry x="30" y="178.75" width="100" height="50" as="geometry" />
        </mxCell>
        <mxCell id="uCpHYPL4uAlhx9UP-cmn-152" value="ProductRepository" style="rounded=0;whiteSpace=wrap;html=1;" vertex="1" parent="uCpHYPL4uAlhx9UP-cmn-153">
          <mxGeometry x="200" y="68.75" width="110" height="50" as="geometry" />
        </mxCell>
        <mxCell id="uCpHYPL4uAlhx9UP-cmn-154" value="&amp;lt;&amp;lt;uses&amp;gt;&amp;gt;" style="endArrow=block;endFill=1;html=1;edgeStyle=orthogonalEdgeStyle;align=left;verticalAlign=top;rounded=0;exitX=1;exitY=0.5;exitDx=0;exitDy=0;entryX=0;entryY=0.416;entryDx=0;entryDy=0;entryPerimeter=0;" edge="1" parent="1" source="uCpHYPL4uAlhx9UP-cmn-77" target="uCpHYPL4uAlhx9UP-cmn-135">
          <mxGeometry x="0.2419" y="21" relative="1" as="geometry">
            <mxPoint x="511.67" y="1900" as="sourcePoint" />
            <mxPoint x="836.67" y="1860" as="targetPoint" />
            <mxPoint as="offset" />
          </mxGeometry>
        </mxCell>
        <mxCell id="uCpHYPL4uAlhx9UP-cmn-156" value="&amp;lt;&amp;lt;call&amp;gt;&amp;gt;" style="html=1;verticalAlign=bottom;endArrow=open;dashed=1;endSize=8;curved=0;rounded=0;exitX=0.25;exitY=1;exitDx=0;exitDy=0;" edge="1" parent="1" source="uCpHYPL4uAlhx9UP-cmn-34" target="uCpHYPL4uAlhx9UP-cmn-62">
          <mxGeometry relative="1" as="geometry">
            <mxPoint x="380" y="1050" as="sourcePoint" />
            <mxPoint x="382.5999999999999" y="800" as="targetPoint" />
          </mxGeometry>
        </mxCell>
        <mxCell id="uCpHYPL4uAlhx9UP-cmn-157" value="Return value" style="html=1;verticalAlign=bottom;endArrow=open;dashed=1;endSize=8;curved=0;rounded=0;exitX=0.75;exitY=0;exitDx=0;exitDy=0;entryX=0.75;entryY=1;entryDx=0;entryDy=0;" edge="1" parent="1" source="uCpHYPL4uAlhx9UP-cmn-62" target="uCpHYPL4uAlhx9UP-cmn-34">
          <mxGeometry x="-0.1192" y="-1" relative="1" as="geometry">
            <mxPoint x="550" y="869" as="sourcePoint" />
            <mxPoint x="590" y="740" as="targetPoint" />
            <mxPoint as="offset" />
            <Array as="points" />
          </mxGeometry>
        </mxCell>
      </root>
    </mxGraphModel>
  </diagram>
  <diagram id="9xeLw-gZzjNfefBRev7X" name="Trang-2">
    <mxGraphModel dx="2313" dy="1233" grid="1" gridSize="10" guides="1" tooltips="1" connect="1" arrows="1" fold="1" page="1" pageScale="1" pageWidth="827" pageHeight="1169" math="0" shadow="0">
      <root>
        <mxCell id="0" />
        <mxCell id="1" parent="0" />
        <mxCell id="5kiLRfzxZcQlgSy3V67r-1" value="" style="ellipse;whiteSpace=wrap;html=1;aspect=fixed;strokeColor=#000000;fillColor=#000000;" vertex="1" parent="1">
          <mxGeometry x="380" y="70" width="40" height="40" as="geometry" />
        </mxCell>
        <mxCell id="5kiLRfzxZcQlgSy3V67r-5" value="" style="endArrow=classic;html=1;rounded=0;exitX=0.5;exitY=1;exitDx=0;exitDy=0;entryX=0.5;entryY=0;entryDx=0;entryDy=0;" edge="1" parent="1" source="5kiLRfzxZcQlgSy3V67r-1" target="5kiLRfzxZcQlgSy3V67r-38">
          <mxGeometry width="50" height="50" relative="1" as="geometry">
            <mxPoint x="270" y="450" as="sourcePoint" />
            <mxPoint x="400" y="210" as="targetPoint" />
          </mxGeometry>
        </mxCell>
        <mxCell id="5kiLRfzxZcQlgSy3V67r-38" value="ReceiveCredentials" style="rounded=0;whiteSpace=wrap;html=1;" vertex="1" parent="1">
          <mxGeometry x="340" y="190" width="120" height="60" as="geometry" />
        </mxCell>
        <mxCell id="5kiLRfzxZcQlgSy3V67r-41" value="" style="rounded=0;whiteSpace=wrap;html=1;fillColor=#000000;" vertex="1" parent="1">
          <mxGeometry x="265" y="280" width="270" height="20" as="geometry" />
        </mxCell>
        <mxCell id="5kiLRfzxZcQlgSy3V67r-42" value="VerifyBasicCredentials" style="swimlane;whiteSpace=wrap;html=1;" vertex="1" parent="1">
          <mxGeometry x="440" y="340" width="290" height="240" as="geometry" />
        </mxCell>
        <mxCell id="5kiLRfzxZcQlgSy3V67r-43" value="" style="ellipse;whiteSpace=wrap;html=1;aspect=fixed;fillColor=#000000;" vertex="1" parent="5kiLRfzxZcQlgSy3V67r-42">
          <mxGeometry x="135" y="30" width="20" height="20" as="geometry" />
        </mxCell>
        <mxCell id="5kiLRfzxZcQlgSy3V67r-44" value="&lt;div&gt;Validate&lt;/div&gt;" style="rounded=0;whiteSpace=wrap;html=1;" vertex="1" parent="5kiLRfzxZcQlgSy3V67r-42">
          <mxGeometry x="110" y="70" width="70" height="30" as="geometry" />
        </mxCell>
        <mxCell id="5kiLRfzxZcQlgSy3V67r-45" value="Decision" style="rounded=0;whiteSpace=wrap;html=1;" vertex="1" parent="5kiLRfzxZcQlgSy3V67r-42">
          <mxGeometry x="110" y="120" width="70" height="30" as="geometry" />
        </mxCell>
        <mxCell id="5kiLRfzxZcQlgSy3V67r-46" value="InvalidCredentials" style="rounded=0;whiteSpace=wrap;html=1;" vertex="1" parent="5kiLRfzxZcQlgSy3V67r-42">
          <mxGeometry x="10" y="190" width="120" height="20" as="geometry" />
        </mxCell>
        <mxCell id="5kiLRfzxZcQlgSy3V67r-47" value="ValidCredentials" style="rounded=0;whiteSpace=wrap;html=1;" vertex="1" parent="5kiLRfzxZcQlgSy3V67r-42">
          <mxGeometry x="155" y="190" width="120" height="20" as="geometry" />
        </mxCell>
        <mxCell id="5kiLRfzxZcQlgSy3V67r-75" value="" style="endArrow=classic;html=1;rounded=0;exitX=0.5;exitY=1;exitDx=0;exitDy=0;entryX=0.5;entryY=0;entryDx=0;entryDy=0;" edge="1" parent="5kiLRfzxZcQlgSy3V67r-42" source="5kiLRfzxZcQlgSy3V67r-43" target="5kiLRfzxZcQlgSy3V67r-44">
          <mxGeometry width="50" height="50" relative="1" as="geometry">
            <mxPoint x="10" y="145" as="sourcePoint" />
            <mxPoint x="60" y="95" as="targetPoint" />
          </mxGeometry>
        </mxCell>
        <mxCell id="5kiLRfzxZcQlgSy3V67r-76" value="" style="endArrow=classic;html=1;rounded=0;exitX=0.5;exitY=1;exitDx=0;exitDy=0;entryX=0.5;entryY=0;entryDx=0;entryDy=0;" edge="1" parent="5kiLRfzxZcQlgSy3V67r-42" source="5kiLRfzxZcQlgSy3V67r-44" target="5kiLRfzxZcQlgSy3V67r-45">
          <mxGeometry width="50" height="50" relative="1" as="geometry">
            <mxPoint x="210" y="100" as="sourcePoint" />
            <mxPoint x="210" y="120" as="targetPoint" />
          </mxGeometry>
        </mxCell>
        <mxCell id="5kiLRfzxZcQlgSy3V67r-77" value="" style="curved=1;endArrow=classic;html=1;rounded=0;exitX=0.25;exitY=1;exitDx=0;exitDy=0;entryX=0.506;entryY=-0.114;entryDx=0;entryDy=0;entryPerimeter=0;" edge="1" parent="5kiLRfzxZcQlgSy3V67r-42" source="5kiLRfzxZcQlgSy3V67r-45" target="5kiLRfzxZcQlgSy3V67r-46">
          <mxGeometry width="50" height="50" relative="1" as="geometry">
            <mxPoint x="247.50000000000023" y="140.0000000000001" as="sourcePoint" />
            <mxPoint x="50" y="170" as="targetPoint" />
            <Array as="points">
              <mxPoint x="50" y="160" />
              <mxPoint x="70" y="180" />
            </Array>
          </mxGeometry>
        </mxCell>
        <mxCell id="5kiLRfzxZcQlgSy3V67r-78" value="" style="curved=1;endArrow=classic;html=1;rounded=0;exitX=0.75;exitY=1;exitDx=0;exitDy=0;entryX=0.5;entryY=0;entryDx=0;entryDy=0;" edge="1" parent="5kiLRfzxZcQlgSy3V67r-42" source="5kiLRfzxZcQlgSy3V67r-45" target="5kiLRfzxZcQlgSy3V67r-47">
          <mxGeometry width="50" height="50" relative="1" as="geometry">
            <mxPoint x="258" y="150" as="sourcePoint" />
            <mxPoint x="201" y="188" as="targetPoint" />
            <Array as="points">
              <mxPoint x="180" y="160" />
              <mxPoint x="200" y="180" />
            </Array>
          </mxGeometry>
        </mxCell>
        <mxCell id="5kiLRfzxZcQlgSy3V67r-48" value="MultiFactorAuth" style="swimlane;whiteSpace=wrap;html=1;" vertex="1" parent="1">
          <mxGeometry x="490" y="610" width="290" height="440" as="geometry" />
        </mxCell>
        <mxCell id="5kiLRfzxZcQlgSy3V67r-50" value="" style="ellipse;whiteSpace=wrap;html=1;aspect=fixed;fillColor=#000000;" vertex="1" parent="5kiLRfzxZcQlgSy3V67r-48">
          <mxGeometry x="135" y="30" width="20" height="20" as="geometry" />
        </mxCell>
        <mxCell id="5kiLRfzxZcQlgSy3V67r-56" value="GenerateOTP" style="rounded=0;whiteSpace=wrap;html=1;" vertex="1" parent="5kiLRfzxZcQlgSy3V67r-48">
          <mxGeometry x="85" y="80" width="120" height="40" as="geometry" />
        </mxCell>
        <mxCell id="5kiLRfzxZcQlgSy3V67r-55" value="SendOTP" style="rounded=0;whiteSpace=wrap;html=1;" vertex="1" parent="5kiLRfzxZcQlgSy3V67r-48">
          <mxGeometry x="85" y="160" width="120" height="40" as="geometry" />
        </mxCell>
        <mxCell id="5kiLRfzxZcQlgSy3V67r-54" value="VerifyOTP" style="rounded=0;whiteSpace=wrap;html=1;" vertex="1" parent="5kiLRfzxZcQlgSy3V67r-48">
          <mxGeometry x="85" y="240" width="120" height="40" as="geometry" />
        </mxCell>
        <mxCell id="5kiLRfzxZcQlgSy3V67r-53" value="InvalidOTP" style="rounded=0;whiteSpace=wrap;html=1;" vertex="1" parent="5kiLRfzxZcQlgSy3V67r-48">
          <mxGeometry x="10" y="360" width="120" height="40" as="geometry" />
        </mxCell>
        <mxCell id="5kiLRfzxZcQlgSy3V67r-61" value="ValidOTP" style="rounded=0;whiteSpace=wrap;html=1;" vertex="1" parent="5kiLRfzxZcQlgSy3V67r-48">
          <mxGeometry x="155" y="360" width="120" height="40" as="geometry" />
        </mxCell>
        <mxCell id="5kiLRfzxZcQlgSy3V67r-80" value="" style="endArrow=classic;html=1;rounded=0;exitX=0.5;exitY=1;exitDx=0;exitDy=0;entryX=0.5;entryY=0;entryDx=0;entryDy=0;" edge="1" parent="5kiLRfzxZcQlgSy3V67r-48" source="5kiLRfzxZcQlgSy3V67r-50" target="5kiLRfzxZcQlgSy3V67r-56">
          <mxGeometry width="50" height="50" relative="1" as="geometry">
            <mxPoint x="85" y="40" as="sourcePoint" />
            <mxPoint x="85" y="60" as="targetPoint" />
          </mxGeometry>
        </mxCell>
        <mxCell id="5kiLRfzxZcQlgSy3V67r-81" value="" style="endArrow=classic;html=1;rounded=0;exitX=0.5;exitY=1;exitDx=0;exitDy=0;entryX=0.5;entryY=0;entryDx=0;entryDy=0;" edge="1" parent="5kiLRfzxZcQlgSy3V67r-48" source="5kiLRfzxZcQlgSy3V67r-56">
          <mxGeometry width="50" height="50" relative="1" as="geometry">
            <mxPoint x="144.79999999999995" y="130" as="sourcePoint" />
            <mxPoint x="144.79999999999995" y="160" as="targetPoint" />
          </mxGeometry>
        </mxCell>
        <mxCell id="5kiLRfzxZcQlgSy3V67r-83" value="" style="endArrow=classic;html=1;rounded=0;exitX=0.5;exitY=1;exitDx=0;exitDy=0;entryX=0.5;entryY=0;entryDx=0;entryDy=0;" edge="1" parent="5kiLRfzxZcQlgSy3V67r-48" source="5kiLRfzxZcQlgSy3V67r-55" target="5kiLRfzxZcQlgSy3V67r-54">
          <mxGeometry width="50" height="50" relative="1" as="geometry">
            <mxPoint x="250" y="220" as="sourcePoint" />
            <mxPoint x="250" y="250" as="targetPoint" />
          </mxGeometry>
        </mxCell>
        <mxCell id="5kiLRfzxZcQlgSy3V67r-84" value="" style="endArrow=classic;html=1;rounded=0;exitX=0.25;exitY=1;exitDx=0;exitDy=0;entryX=0.5;entryY=0;entryDx=0;entryDy=0;" edge="1" parent="5kiLRfzxZcQlgSy3V67r-48" source="5kiLRfzxZcQlgSy3V67r-54" target="5kiLRfzxZcQlgSy3V67r-53">
          <mxGeometry width="50" height="50" relative="1" as="geometry">
            <mxPoint x="-90" y="350" as="sourcePoint" />
            <mxPoint x="-40" y="300" as="targetPoint" />
          </mxGeometry>
        </mxCell>
        <mxCell id="5kiLRfzxZcQlgSy3V67r-85" value="" style="endArrow=classic;html=1;rounded=0;exitX=0.75;exitY=1;exitDx=0;exitDy=0;entryX=0.523;entryY=0.019;entryDx=0;entryDy=0;entryPerimeter=0;" edge="1" parent="5kiLRfzxZcQlgSy3V67r-48" source="5kiLRfzxZcQlgSy3V67r-54" target="5kiLRfzxZcQlgSy3V67r-61">
          <mxGeometry width="50" height="50" relative="1" as="geometry">
            <mxPoint x="190" y="340" as="sourcePoint" />
            <mxPoint x="240" y="290" as="targetPoint" />
          </mxGeometry>
        </mxCell>
        <mxCell id="5kiLRfzxZcQlgSy3V67r-62" value="join_state" style="swimlane;whiteSpace=wrap;html=1;" vertex="1" parent="1">
          <mxGeometry x="90" y="1090" width="660" height="200" as="geometry" />
        </mxCell>
        <mxCell id="5kiLRfzxZcQlgSy3V67r-52" value="BlockAccount" style="rounded=0;whiteSpace=wrap;html=1;" vertex="1" parent="5kiLRfzxZcQlgSy3V67r-62">
          <mxGeometry x="60" y="80" width="120" height="60" as="geometry" />
        </mxCell>
        <mxCell id="5kiLRfzxZcQlgSy3V67r-65" value="GrantAccess" style="rounded=0;whiteSpace=wrap;html=1;" vertex="1" parent="5kiLRfzxZcQlgSy3V67r-62">
          <mxGeometry x="490" y="80" width="120" height="60" as="geometry" />
        </mxCell>
        <mxCell id="5kiLRfzxZcQlgSy3V67r-64" value="DenyAccess" style="rounded=0;whiteSpace=wrap;html=1;" vertex="1" parent="5kiLRfzxZcQlgSy3V67r-62">
          <mxGeometry x="270" y="80" width="120" height="60" as="geometry" />
        </mxCell>
        <mxCell id="5kiLRfzxZcQlgSy3V67r-68" value="CheckSecurityRisk" style="swimlane;whiteSpace=wrap;html=1;startSize=23;" vertex="1" parent="1">
          <mxGeometry x="85" y="530" width="270" height="280" as="geometry" />
        </mxCell>
        <mxCell id="5kiLRfzxZcQlgSy3V67r-69" value="" style="ellipse;whiteSpace=wrap;html=1;aspect=fixed;fillColor=#000000;" vertex="1" parent="5kiLRfzxZcQlgSy3V67r-68">
          <mxGeometry x="120" y="30" width="20" height="20" as="geometry" />
        </mxCell>
        <mxCell id="5kiLRfzxZcQlgSy3V67r-51" value="RiskAssessment" style="rounded=0;whiteSpace=wrap;html=1;" vertex="1" parent="5kiLRfzxZcQlgSy3V67r-68">
          <mxGeometry x="50" y="80" width="160" height="50" as="geometry" />
        </mxCell>
        <mxCell id="5kiLRfzxZcQlgSy3V67r-70" value="LowRisk" style="rounded=0;whiteSpace=wrap;html=1;" vertex="1" parent="5kiLRfzxZcQlgSy3V67r-68">
          <mxGeometry x="10" y="210" width="100" height="40" as="geometry" />
        </mxCell>
        <mxCell id="5kiLRfzxZcQlgSy3V67r-63" value="HighRisk" style="rounded=0;whiteSpace=wrap;html=1;" vertex="1" parent="5kiLRfzxZcQlgSy3V67r-68">
          <mxGeometry x="140" y="210" width="100" height="40" as="geometry" />
        </mxCell>
        <mxCell id="5kiLRfzxZcQlgSy3V67r-89" value="" style="endArrow=classic;html=1;rounded=0;exitX=0.25;exitY=1;exitDx=0;exitDy=0;entryX=0.5;entryY=0;entryDx=0;entryDy=0;" edge="1" parent="5kiLRfzxZcQlgSy3V67r-68" source="5kiLRfzxZcQlgSy3V67r-51" target="5kiLRfzxZcQlgSy3V67r-70">
          <mxGeometry width="50" height="50" relative="1" as="geometry">
            <mxPoint x="120" y="190" as="sourcePoint" />
            <mxPoint x="170" y="140" as="targetPoint" />
          </mxGeometry>
        </mxCell>
        <mxCell id="5kiLRfzxZcQlgSy3V67r-90" value="" style="endArrow=classic;html=1;rounded=0;exitX=0.75;exitY=1;exitDx=0;exitDy=0;entryX=0.5;entryY=0;entryDx=0;entryDy=0;" edge="1" parent="5kiLRfzxZcQlgSy3V67r-68" source="5kiLRfzxZcQlgSy3V67r-51" target="5kiLRfzxZcQlgSy3V67r-63">
          <mxGeometry width="50" height="50" relative="1" as="geometry">
            <mxPoint x="140" y="170" as="sourcePoint" />
            <mxPoint x="240" y="180" as="targetPoint" />
          </mxGeometry>
        </mxCell>
        <mxCell id="5kiLRfzxZcQlgSy3V67r-71" value="" style="endArrow=classic;html=1;rounded=0;exitX=0.5;exitY=1;exitDx=0;exitDy=0;entryX=0.5;entryY=0;entryDx=0;entryDy=0;" edge="1" parent="1" source="5kiLRfzxZcQlgSy3V67r-38" target="5kiLRfzxZcQlgSy3V67r-41">
          <mxGeometry width="50" height="50" relative="1" as="geometry">
            <mxPoint x="650" y="170" as="sourcePoint" />
            <mxPoint x="700" y="120" as="targetPoint" />
          </mxGeometry>
        </mxCell>
        <mxCell id="5kiLRfzxZcQlgSy3V67r-72" value="" style="endArrow=classic;html=1;rounded=0;exitX=0.795;exitY=1.139;exitDx=0;exitDy=0;exitPerimeter=0;entryX=0.5;entryY=0;entryDx=0;entryDy=0;" edge="1" parent="1" source="5kiLRfzxZcQlgSy3V67r-41" target="5kiLRfzxZcQlgSy3V67r-42">
          <mxGeometry width="50" height="50" relative="1" as="geometry">
            <mxPoint x="610" y="330" as="sourcePoint" />
            <mxPoint x="660" y="280" as="targetPoint" />
          </mxGeometry>
        </mxCell>
        <mxCell id="5kiLRfzxZcQlgSy3V67r-74" value="" style="curved=1;endArrow=classic;html=1;rounded=0;exitX=0.311;exitY=0.929;exitDx=0;exitDy=0;exitPerimeter=0;entryX=0.382;entryY=-0.005;entryDx=0;entryDy=0;entryPerimeter=0;" edge="1" parent="1" source="5kiLRfzxZcQlgSy3V67r-41" target="5kiLRfzxZcQlgSy3V67r-68">
          <mxGeometry width="50" height="50" relative="1" as="geometry">
            <mxPoint x="120" y="510" as="sourcePoint" />
            <mxPoint x="170" y="460" as="targetPoint" />
            <Array as="points">
              <mxPoint x="170" y="510" />
            </Array>
          </mxGeometry>
        </mxCell>
        <mxCell id="5kiLRfzxZcQlgSy3V67r-79" value="" style="endArrow=classic;html=1;rounded=0;exitX=0.461;exitY=1.049;exitDx=0;exitDy=0;entryX=0.55;entryY=-0.001;entryDx=0;entryDy=0;entryPerimeter=0;exitPerimeter=0;" edge="1" parent="1" source="5kiLRfzxZcQlgSy3V67r-47" target="5kiLRfzxZcQlgSy3V67r-48">
          <mxGeometry width="50" height="50" relative="1" as="geometry">
            <mxPoint x="690" y="650" as="sourcePoint" />
            <mxPoint x="740" y="600" as="targetPoint" />
          </mxGeometry>
        </mxCell>
        <mxCell id="5kiLRfzxZcQlgSy3V67r-86" value="" style="endArrow=classic;html=1;rounded=0;exitX=0.5;exitY=1;exitDx=0;exitDy=0;entryX=0.5;entryY=0;entryDx=0;entryDy=0;" edge="1" parent="1" source="5kiLRfzxZcQlgSy3V67r-61" target="5kiLRfzxZcQlgSy3V67r-65">
          <mxGeometry width="50" height="50" relative="1" as="geometry">
            <mxPoint x="777" y="1160" as="sourcePoint" />
            <mxPoint x="827" y="1110" as="targetPoint" />
          </mxGeometry>
        </mxCell>
        <mxCell id="5kiLRfzxZcQlgSy3V67r-87" value="" style="curved=1;endArrow=classic;html=1;rounded=0;exitX=0.5;exitY=1;exitDx=0;exitDy=0;entryX=0.75;entryY=0;entryDx=0;entryDy=0;" edge="1" parent="1" source="5kiLRfzxZcQlgSy3V67r-53" target="5kiLRfzxZcQlgSy3V67r-64">
          <mxGeometry width="50" height="50" relative="1" as="geometry">
            <mxPoint x="600.0000000000002" y="1090" as="sourcePoint" />
            <mxPoint x="500" y="1210" as="targetPoint" />
            <Array as="points">
              <mxPoint x="490" y="1190" />
              <mxPoint x="470" y="1120" />
            </Array>
          </mxGeometry>
        </mxCell>
        <mxCell id="5kiLRfzxZcQlgSy3V67r-88" value="" style="curved=1;endArrow=classic;html=1;rounded=0;exitX=0.25;exitY=1;exitDx=0;exitDy=0;entryX=0.25;entryY=0;entryDx=0;entryDy=0;" edge="1" parent="1" source="5kiLRfzxZcQlgSy3V67r-46" target="5kiLRfzxZcQlgSy3V67r-64">
          <mxGeometry width="50" height="50" relative="1" as="geometry">
            <mxPoint x="310" y="700" as="sourcePoint" />
            <mxPoint x="360" y="650" as="targetPoint" />
            <Array as="points">
              <mxPoint x="360" y="700" />
              <mxPoint x="390" y="950" />
              <mxPoint x="390" y="940" />
              <mxPoint x="370" y="1080" />
            </Array>
          </mxGeometry>
        </mxCell>
        <mxCell id="5kiLRfzxZcQlgSy3V67r-91" value="" style="endArrow=classic;html=1;rounded=0;exitX=0.5;exitY=1;exitDx=0;exitDy=0;entryX=0.75;entryY=0;entryDx=0;entryDy=0;" edge="1" parent="1" source="5kiLRfzxZcQlgSy3V67r-63" target="5kiLRfzxZcQlgSy3V67r-52">
          <mxGeometry width="50" height="50" relative="1" as="geometry">
            <mxPoint x="310" y="1260" as="sourcePoint" />
            <mxPoint x="360" y="1210" as="targetPoint" />
          </mxGeometry>
        </mxCell>
        <mxCell id="5kiLRfzxZcQlgSy3V67r-92" value="" style="endArrow=classic;html=1;rounded=0;exitX=0.5;exitY=1;exitDx=0;exitDy=0;entryX=0.5;entryY=0;entryDx=0;entryDy=0;" edge="1" parent="1" source="5kiLRfzxZcQlgSy3V67r-52" target="5kiLRfzxZcQlgSy3V67r-66">
          <mxGeometry width="50" height="50" relative="1" as="geometry">
            <mxPoint x="310" y="1475" as="sourcePoint" />
            <mxPoint x="360" y="1425" as="targetPoint" />
          </mxGeometry>
        </mxCell>
        <mxCell id="5kiLRfzxZcQlgSy3V67r-93" value="" style="group" vertex="1" connectable="0" parent="1">
          <mxGeometry x="190" y="1330" width="40" height="40" as="geometry" />
        </mxCell>
        <mxCell id="5kiLRfzxZcQlgSy3V67r-66" value="" style="ellipse;whiteSpace=wrap;html=1;aspect=fixed;" vertex="1" parent="5kiLRfzxZcQlgSy3V67r-93">
          <mxGeometry width="40" height="40" as="geometry" />
        </mxCell>
        <mxCell id="5kiLRfzxZcQlgSy3V67r-67" value="" style="ellipse;whiteSpace=wrap;html=1;aspect=fixed;fillColor=#000000;" vertex="1" parent="5kiLRfzxZcQlgSy3V67r-93">
          <mxGeometry x="5" y="5" width="30" height="30" as="geometry" />
        </mxCell>
      </root>
    </mxGraphModel>
  </diagram>
</mxfile>
